<svg width="128" height="48" viewBox="0 0 128 48" fill="none" xmlns="http://www.w3.org/2000/svg">
<mask id="mask0_86_296" style="mask-type:alpha" maskUnits="userSpaceOnUse" x="9" y="9" width="32" height="30">
<rect x="26.1267" y="24.0987" width="10.3726" height="10.3726" rx="1.41444" transform="rotate(-45 26.1267 24.0987)" stroke="#5F03FF" stroke-width="0.942963"/>
<rect x="9.42969" y="24.0987" width="9.42963" height="9.42963" rx="1.88593" transform="rotate(-45 9.42969 24.0987)" fill="#5F03FF"/>
<path d="M18.7646 17.4309C18.0281 16.6944 18.0281 15.5003 18.7646 14.7638L22.7652 10.7632C23.5017 10.0267 24.6958 10.0267 25.4323 10.7632L29.433 14.7638C30.1695 15.5003 30.1695 16.6944 29.433 17.4309L25.4323 21.4316C24.6958 22.1681 23.5017 22.1681 22.7652 21.4316L18.7646 17.4309Z" fill="#5F03FF"/>
<rect x="17.431" y="32.1" width="9.42963" height="9.42963" rx="1.88593" transform="rotate(-45 17.431 32.1)" fill="#5F03FF"/>
<path d="M31.5278 22.1772C32.1902 22.4956 32.7647 22.6784 33.36 22.6785C33.9553 22.6785 34.5304 22.4963 35.1929 22.1779C34.8728 22.8365 34.6888 23.4081 34.6888 24C34.6887 24.5917 34.8723 25.163 35.1922 25.8214C34.5301 25.5032 33.9551 25.3214 33.36 25.3214C32.7646 25.3215 32.1896 25.5035 31.5271 25.8221C31.8472 25.1635 32.0317 24.5925 32.0319 24.0007C32.0319 23.4084 31.8481 22.8363 31.5278 22.1772Z" fill="white" stroke="url(#paint0_linear_86_296)" stroke-width="0.942963"/>
</mask>
<g mask="url(#mask0_86_296)">
<rect x="9.19397" y="8.25092" width="33.0037" height="33.0037" fill="url(#paint1_linear_86_296)"/>
</g>
<path d="M46.1909 30.9658V17.2499H55.2723V19.6408H49.0908V22.909H54.6695V25.2999H49.0908V30.9658H46.1909ZM60.0222 17.2499V30.9658H57.1692V17.2499H60.0222ZM68.9044 26.5858V20.6789H71.7574V30.9658H69.0182V29.0972H68.9111C68.6789 29.7 68.2927 30.1844 67.7525 30.5505C67.2167 30.9166 66.5626 31.0997 65.7902 31.0997C65.1026 31.0997 64.4976 30.9434 63.9752 30.6309C63.4529 30.3184 63.0443 29.8741 62.7497 29.2982C62.4595 28.7222 62.3121 28.0324 62.3076 27.2287V20.6789H65.1606V26.7197C65.1651 27.327 65.3281 27.8069 65.6495 28.1596C65.971 28.5124 66.4019 28.6887 66.9421 28.6887C67.2859 28.6887 67.6074 28.6106 67.9065 28.4543C68.2056 28.2936 68.4467 28.0569 68.6298 27.7444C68.8173 27.4319 68.9088 27.0457 68.9044 26.5858ZM76.4236 20.6789L78.3122 24.2753L80.2477 20.6789H83.1744L80.1942 25.8223L83.2548 30.9658H80.3415L78.3122 27.4096L76.3165 30.9658H73.3697L76.4236 25.8223L73.4769 20.6789H76.4236ZM87.7469 31.16C87.0906 31.16 86.5057 31.0461 85.9922 30.8184C85.4788 30.5863 85.0725 30.2447 84.7733 29.7938C84.4787 29.3383 84.3313 28.7713 84.3313 28.0927C84.3313 27.5212 84.4363 27.0412 84.6461 26.6528C84.8559 26.2643 85.1417 25.9518 85.5033 25.7152C85.865 25.4785 86.2758 25.2999 86.7356 25.1794C87.2 25.0588 87.6866 24.974 88.1956 24.9249C88.7939 24.8624 89.2761 24.8044 89.6422 24.7508C90.0083 24.6927 90.274 24.6079 90.4392 24.4963C90.6044 24.3847 90.687 24.2195 90.687 24.0007V23.9605C90.687 23.5364 90.553 23.2082 90.2851 22.976C90.0217 22.7439 89.6467 22.6278 89.16 22.6278C88.6466 22.6278 88.238 22.7416 87.9344 22.9693C87.6308 23.1926 87.4299 23.4738 87.3317 23.8132L84.693 23.5989C84.8269 22.9738 85.0903 22.4335 85.4833 21.9781C85.8762 21.5183 86.3829 21.1655 87.0035 20.92C87.6286 20.67 88.3519 20.5449 89.1734 20.5449C89.7449 20.5449 90.2918 20.6119 90.8142 20.7459C91.3411 20.8798 91.8076 21.0874 92.2139 21.3687C92.6247 21.65 92.9484 22.0116 93.185 22.4536C93.4216 22.8912 93.54 23.4158 93.54 24.0275V30.9658H90.8343V29.5393H90.7539C90.5887 29.8607 90.3677 30.1442 90.0909 30.3898C89.8141 30.6309 89.4815 30.8207 89.093 30.9591C88.7046 31.093 88.2559 31.16 87.7469 31.16ZM88.564 29.191C88.9836 29.191 89.3542 29.1084 89.6757 28.9432C89.9972 28.7735 90.2494 28.5458 90.4325 28.2601C90.6155 27.9744 90.7071 27.6507 90.7071 27.289V26.1974C90.6178 26.2554 90.495 26.309 90.3387 26.3581C90.1869 26.4027 90.015 26.4452 89.823 26.4853C89.631 26.5211 89.4391 26.5545 89.2471 26.5858C89.0551 26.6126 88.881 26.6371 88.7247 26.6595C88.3898 26.7086 88.0974 26.7867 87.8474 26.8939C87.5973 27.001 87.4031 27.1461 87.2647 27.3292C87.1263 27.5078 87.0571 27.731 87.0571 27.9989C87.0571 28.3873 87.1977 28.6843 87.479 28.8896C87.7648 29.0905 88.1264 29.191 88.564 29.191ZM108.644 17.2499H111.544V26.1572C111.544 27.1573 111.305 28.0324 110.827 28.7825C110.354 29.5326 109.691 30.1174 108.838 30.5371C107.985 30.9524 106.992 31.16 105.858 31.16C104.719 31.16 103.724 30.9524 102.871 30.5371C102.018 30.1174 101.355 29.5326 100.882 28.7825C100.408 28.0324 100.172 27.1573 100.172 26.1572V17.2499H103.072V25.9094C103.072 26.4318 103.186 26.8961 103.413 27.3024C103.645 27.7087 103.971 28.0279 104.391 28.2601C104.811 28.4923 105.3 28.6084 105.858 28.6084C106.42 28.6084 106.909 28.4923 107.324 28.2601C107.744 28.0279 108.068 27.7087 108.296 27.3024C108.528 26.8961 108.644 26.4318 108.644 25.9094V17.2499ZM116.829 17.2499V30.9658H113.93V17.2499H116.829Z" fill="black"/>
<defs>
<linearGradient id="paint0_linear_86_296" x1="35.8734" y1="24.1142" x2="31.8012" y2="25.7845" gradientUnits="userSpaceOnUse">
<stop stop-color="#228CFB"/>
<stop offset="0.269231" stop-color="#8B6DE7"/>
<stop offset="0.528846" stop-color="#CD56D2"/>
<stop offset="0.745192" stop-color="#EB3E84"/>
<stop offset="0.961538" stop-color="#FE731B"/>
</linearGradient>
<linearGradient id="paint1_linear_86_296" x1="26.7567" y1="35.0075" x2="35.1488" y2="15.2034" gradientUnits="userSpaceOnUse">
<stop stop-color="#FE6113"/>
<stop offset="0.254808" stop-color="#FE3151"/>
<stop offset="0.514423" stop-color="#DD48DD"/>
<stop offset="0.730769" stop-color="#8168E5"/>
<stop offset="1" stop-color="#0048FF"/>
</linearGradient>
</defs>
</svg>
